<svg id="kity_svg_6" xmlns="http://www.w3.org/2000/svg" xmlns:xlink="http://www.w3.org/1999/xlink" version="1.1" width="2788" height="3305" style="background: rgb(251, 251, 251); visibility: visible;" viewBox="0 0 2788 3305"><defs id="kity_defs_7"><linearGradient id="kity_linearGradient_17" x1="0" y1="0" x2="0" y2="1"><stop id="kity_stop_18" offset="0" stop-color="rgb(255, 255, 255)"></stop><stop id="kity_stop_19" offset="1" stop-color="rgb(204, 204, 204)"></stop></linearGradient><marker id="kity_marker_2" orient="auto" refX="6" refY="0" viewBox="-7 -7 14 14" markerWidth="7" markerHeight="7" markerUnits="userSpaceOnUse"><path id="kity_path_3" fill="rgb(115, 161, 191)" stroke="none" d="M6,0A6,6,0,1,1,-6,0A6,6,0,1,1,6,0"></path></marker></defs><g id="kity_g_8"><g id="minder1" text-rendering="optimize-speed"><g id="minder_connect_group1"><path id="kity_path_31" fill="none" stroke="rgb(115, 161, 191)" stroke-width="1" d="M88.00000051409006,2311.4999924078584A332.5,63,0,0,1,420.50000051409006,2248.4999924078584"></path><path id="kity_path_45" fill="none" stroke="rgb(115, 161, 191)" stroke-width="1" d="M88.00000051409006,2311.4999924078584A214.5,1332,0,0,1,302.50000051409006,979.4999924078584"></path><path id="kity_path_47" fill="none" stroke="rgb(115, 161, 191)" stroke-width="1" d="M388.50000051409006,979.4999924078584C404.50000051409006,979.4999924078584,404.50000051409006,397.4999924078584,420.50000051409006,397.4999924078584L480.50000051409006,397.4999924078584"></path><path id="kity_path_49" fill="none" stroke="rgb(115, 161, 191)" stroke-width="1" d="M480.50000051409006,397.4999924078584C507.00000051409006,397.4999924078584,507.00000051409006,97.49999240785837,533.5000005140901,97.49999240785837L618.5000005140901,97.49999240785837"></path><path id="kity_path_51" fill="none" stroke="rgb(115, 161, 191)" stroke-width="1" d="M618.5000005140901,97.49999240785837C633.5000005140901,97.49999240785837,633.5000005140901,115.49999240785837,648.5000005140901,115.49999240785837L1783.50000051409,115.49999240785837"></path><path id="kity_path_53" fill="none" stroke="rgb(115, 161, 191)" stroke-width="1" d="M1783.50000051409,115.49999240785837C1798.50000051409,115.49999240785837,1798.50000051409,45.49999240785837,1813.50000051409,45.49999240785837L2522.50000051409,45.49999240785837"></path><path id="kity_path_55" fill="none" stroke="rgb(115, 161, 191)" stroke-width="1" d="M1783.50000051409,115.49999240785837C1798.50000051409,115.49999240785837,1798.50000051409,97.49999240785837,1813.50000051409,97.49999240785837L2767.50000051409,97.49999240785837"></path><path id="kity_path_57" fill="none" stroke="rgb(115, 161, 191)" stroke-width="1" d="M1783.50000051409,115.49999240785837C1798.50000051409,115.49999240785837,1798.50000051409,149.49999240785837,1813.50000051409,149.49999240785837L2754.50000051409,149.49999240785837"></path><path id="kity_path_59" fill="none" stroke="rgb(115, 161, 191)" stroke-width="1" d="M480.50000051409006,397.4999924078584C509.50000051409006,397.4999924078584,509.50000051409006,632.4999924078584,538.5000005140901,632.4999924078584L617.5000005140901,632.4999924078584"></path><path id="kity_path_61" fill="none" stroke="rgb(115, 161, 191)" stroke-width="1" d="M617.5000005140901,632.4999924078584C632.5000005140901,632.4999924078584,632.5000005140901,687.4999924078584,647.5000005140901,687.4999924078584L951.5000005140901,687.4999924078584"></path><path id="kity_path_63" fill="none" stroke="rgb(115, 161, 191)" stroke-width="1" d="M951.5000005140901,687.4999924078584C966.5000005140901,687.4999924078584,966.5000005140901,556.4999924078584,981.5000005140901,556.4999924078584L1478.50000051409,556.4999924078584"></path><path id="kity_path_65" fill="none" stroke="rgb(115, 161, 191)" stroke-width="1" d="M951.5000005140901,687.4999924078584C966.5000005140901,687.4999924078584,966.5000005140901,608.4999924078584,981.5000005140901,608.4999924078584L1875.50000051409,608.4999924078584"></path><path id="kity_path_67" fill="none" stroke="rgb(115, 161, 191)" stroke-width="1" d="M951.5000005140901,687.4999924078584C966.5000005140901,687.4999924078584,966.5000005140901,660.4999924078584,981.5000005140901,660.4999924078584L2253.50000051409,660.4999924078584"></path><path id="kity_path_69" fill="none" stroke="rgb(115, 161, 191)" stroke-width="1" d="M951.5000005140901,687.4999924078584C966.5000005140901,687.4999924078584,966.5000005140901,712.4999924078584,981.5000005140901,712.4999924078584L2215.50000051409,712.4999924078584"></path><path id="kity_path_71" fill="none" stroke="rgb(115, 161, 191)" stroke-width="1" d="M951.5000005140901,687.4999924078584C966.5000005140901,687.4999924078584,966.5000005140901,764.4999924078584,981.5000005140901,764.4999924078584L1871.50000051409,764.4999924078584"></path><path id="kity_path_73" fill="none" stroke="rgb(115, 161, 191)" stroke-width="1" d="M480.50000051409006,397.4999924078584C514.5000005140901,397.4999924078584,514.5000005140901,428.4999924078584,548.5000005140901,428.4999924078584L627.5000005140901,428.4999924078584"></path><path id="kity_path_75" fill="none" stroke="rgb(115, 161, 191)" stroke-width="1" d="M627.5000005140901,428.4999924078584C639.5000005140901,428.4999924078584,639.5000005140901,428.4999924078584,651.5000005140901,428.4999924078584L952.5000005140901,428.4999924078584"></path><path id="kity_path_77" fill="none" stroke="rgb(115, 161, 191)" stroke-width="1" d="M952.5000005140901,428.4999924078584C968.0000005140901,428.4999924078584,968.0000005140901,297.4999924078584,983.5000005140901,297.4999924078584L1550.50000051409,297.4999924078584"></path><path id="kity_path_79" fill="none" stroke="rgb(115, 161, 191)" stroke-width="1" d="M952.5000005140901,428.4999924078584C967.5000005140901,428.4999924078584,967.5000005140901,349.4999924078584,982.5000005140901,349.4999924078584L1729.50000051409,349.4999924078584"></path><path id="kity_path_81" fill="none" stroke="rgb(115, 161, 191)" stroke-width="1" d="M952.5000005140901,428.4999924078584C967.5000005140901,428.4999924078584,967.5000005140901,401.4999924078584,982.5000005140901,401.4999924078584L1479.50000051409,401.4999924078584"></path><path id="kity_path_83" fill="none" stroke="rgb(115, 161, 191)" stroke-width="1" d="M952.5000005140901,428.4999924078584C967.5000005140901,428.4999924078584,967.5000005140901,453.4999924078584,982.5000005140901,453.4999924078584L2216.50000051409,453.4999924078584"></path><path id="kity_path_85" fill="none" stroke="rgb(115, 161, 191)" stroke-width="1" d="M952.5000005140901,428.4999924078584C967.5000005140901,428.4999924078584,967.5000005140901,505.4999924078584,982.5000005140901,505.4999924078584L1872.50000051409,505.4999924078584"></path><path id="kity_path_87" fill="none" stroke="rgb(115, 161, 191)" stroke-width="1" d="M388.50000051409006,979.4999924078584C412.00000051409006,979.4999924078584,412.00000051409006,867.4999924078584,435.50000051409006,867.4999924078584L491.50000051409006,867.4999924078584"></path><path id="kity_path_89" fill="none" stroke="rgb(115, 161, 191)" stroke-width="1" d="M491.50000051409006,867.4999924078584C569.5000005140901,867.4999924078584,569.5000005140901,866.4999924078584,647.5000005140901,866.4999924078584L877.5000005140901,866.4999924078584"></path><path id="kity_path_91" fill="none" stroke="rgb(115, 161, 191)" stroke-width="1" d="M388.50000051409006,979.4999924078584C403.50000051409006,979.4999924078584,403.50000051409006,1488.4999924078584,418.50000051409006,1488.4999924078584L481.50000051409006,1488.4999924078584"></path><path id="kity_path_93" fill="none" stroke="rgb(115, 161, 191)" stroke-width="1" d="M481.50000051409006,1488.4999924078584C565.5000005140901,1488.4999924078584,565.5000005140901,1095.4999924078584,649.5000005140901,1095.4999924078584L879.5000005140901,1095.4999924078584"></path><path id="kity_path_95" fill="none" stroke="rgb(115, 161, 191)" stroke-width="1" d="M481.50000051409006,1488.4999924078584C566.5000005140901,1488.4999924078584,566.5000005140901,1325.4999924078584,651.5000005140901,1325.4999924078584L881.5000005140901,1325.4999924078584"></path><path id="kity_path_97" fill="none" stroke="rgb(115, 161, 191)" stroke-width="1" d="M481.50000051409006,1488.4999924078584C591.5000005140901,1488.4999924078584,591.5000005140901,1574.4999924078584,701.5000005140901,1574.4999924078584L843.5000005140901,1574.4999924078584"></path><path id="kity_path_99" fill="none" stroke="rgb(115, 161, 191)" stroke-width="1" d="M481.50000051409006,1488.4999924078584C570.5000005140901,1488.4999924078584,570.5000005140901,1741.4999924078584,659.5000005140901,1741.4999924078584L889.5000005140901,1741.4999924078584"></path><path id="kity_path_101" fill="none" stroke="rgb(115, 161, 191)" stroke-width="1" d="M88.00000051409006,2311.4999924078584A165.5,265,0,0,0,253.50000051409006,2576.4999924078584"></path><path id="kity_path_103" fill="none" stroke="rgb(115, 161, 191)" stroke-width="1" d="M88.00000051409006,2311.4999924078584A126.5,815,0,0,0,214.50000051409006,3126.4999924078584"></path><path id="kity_path_364" fill="none" stroke="rgb(115, 161, 191)" stroke-width="1" d="M409.50000051409006,2590.4999924078584C424.50000051409006,2590.4999924078584,424.50000051409006,2662.4999924078584,439.50000051409006,2662.4999924078584L669.5000005140901,2662.4999924078584"></path><path id="kity_path_365" fill="none" stroke="rgb(115, 161, 191)" stroke-width="1" d="M338.50000051409006,2576.4999924078584C353.50000051409006,2576.4999924078584,353.50000051409006,2590.4999924078584,368.50000051409006,2590.4999924078584L409.50000051409006,2590.4999924078584"></path><path id="kity_path_367" fill="none" stroke="rgb(115, 161, 191)" stroke-width="1" d="M328.50000051409006,3126.4999924078584C366.50000051409006,3126.4999924078584,366.50000051409006,3032.4999924078584,404.50000051409006,3032.4999924078584L458.50000051409006,3032.4999924078584"></path><path id="kity_path_383" fill="none" stroke="rgb(115, 161, 191)" stroke-width="1" d="M458.50000051409006,3032.4999924078584C527.0000005140901,3032.4999924078584,527.0000005140901,3049.4999924078584,595.5000005140901,3049.4999924078584L825.5000005140901,3049.4999924078584"></path><path id="kity_path_393" fill="none" stroke="rgb(115, 161, 191)" stroke-width="1" d="M328.50000051409006,3126.4999924078584C357.00000051409006,3126.4999924078584,357.00000051409006,3139.4999924078584,385.50000051409006,3139.4999924078584L472.50000051409006,3139.4999924078584"></path><path id="kity_path_409" fill="none" stroke="rgb(115, 161, 191)" stroke-width="1" d="M328.50000051409006,3126.4999924078584C376.00000051409006,3126.4999924078584,376.00000051409006,3268.4999924078584,423.50000051409006,3268.4999924078584L475.50000051409006,3268.4999924078584"></path><path id="kity_path_417" fill="none" stroke="rgb(115, 161, 191)" stroke-width="1" d="M475.50000051409006,3268.4999924078584C527.5000005140901,3268.4999924078584,527.5000005140901,3285.4999924078584,579.5000005140901,3285.4999924078584L809.5000005140901,3285.4999924078584"></path><path id="kity_path_425" fill="none" stroke="rgb(115, 161, 191)" stroke-width="1" d="M588.5000005140901,2082.4999924078584C603.5000005140901,2082.4999924078584,603.5000005140901,1955.4999924078584,618.5000005140901,1955.4999924078584L848.5000005140901,1955.4999924078584"></path><path id="kity_path_426" fill="none" stroke="rgb(115, 161, 191)" stroke-width="1" d="M588.5000005140901,2082.4999924078584C603.5000005140901,2082.4999924078584,603.5000005140901,2143.4999924078584,618.5000005140901,2143.4999924078584L848.5000005140901,2143.4999924078584"></path><path id="kity_path_427" fill="none" stroke="rgb(115, 161, 191)" stroke-width="1" d="M588.5000005140901,2082.4999924078584C603.5000005140901,2082.4999924078584,603.5000005140901,2352.4999924078584,618.5000005140901,2352.4999924078584L848.5000005140901,2352.4999924078584"></path><path id="kity_path_428" fill="none" stroke="rgb(115, 161, 191)" stroke-width="1" d="M506.50000051409006,2248.4999924078584C521.5000005140901,2248.4999924078584,521.5000005140901,2082.4999924078584,536.5000005140901,2082.4999924078584L588.5000005140901,2082.4999924078584"></path><path id="kity_path_429" fill="none" stroke="rgb(115, 161, 191)" stroke-width="1" d="M591.5000005140901,2442.4999924078584C606.5000005140901,2442.4999924078584,606.5000005140901,2480.4999924078584,621.5000005140901,2480.4999924078584L851.5000005140901,2480.4999924078584"></path><path id="kity_path_430" fill="none" stroke="rgb(115, 161, 191)" stroke-width="1" d="M506.50000051409006,2248.4999924078584C521.5000005140901,2248.4999924078584,521.5000005140901,2442.4999924078584,536.5000005140901,2442.4999924078584L591.5000005140901,2442.4999924078584"></path></g><g id="minder_node1"><path id="node_outline1" fill="rgb(115, 161, 191)" stroke="rgb(115, 161, 191)" d="M24.50000051409006,2291.4999924078584h127a5,5,0,0,1,5,5v30a5,5,0,0,1,-5,5h-127a5,5,0,0,1,-5,-5v-30a5,5,0,0,1,5,-5z" stroke-width="3"></path><g id="node_text1" fill="white"><text id="kity_text_22" text-rendering="inherit" font-size="16" dy=".8em" y="2301.0999923720956" x="43.50000051409006">网络4层协议</text></g></g><g id="kity_g_14" display="none"><path id="kity_path_15" fill="none" stroke="none" d="M43.50000051409006,2311.4999924078584h0v0h0z"></path><path id="kity_path_16" fill="none" stroke="none"></path></g><g id="minder_node2" opacity="1"><g id="node_expander7" style="cursor: pointer;"><path id="kity_path_251" fill="white" stroke="gray" d="M421.500006057322,2248.499991469085A6,6,0,1,1,409.500006057322,2248.499991469085A6,6,0,1,1,421.500006057322,2248.499991469085"></path><path id="kity_path_252" fill="none" stroke="gray" d="M411.000006057322,2248.499991469085L420.000006057322,2248.499991469085"></path></g><path id="node_outline8" fill="rgb(238, 243, 246)" stroke="rgb(115, 161, 191)" d="M425.5000064596534,2235.499991469085h78a3,3,0,0,1,3,3v20a3,3,0,0,1,-3,3h-78a3,3,0,0,1,-3,-3v-20a3,3,0,0,1,3,-3z" stroke-width="1"></path><g id="node_text8" fill="black"><text id="kity_text_117" text-rendering="inherit" font-size="14" dy=".8em" y="2239.399991437793" x="442.5000064596534">传输层</text></g></g><g id="minder_node9"><g id="node_expander35" style="cursor: pointer;"><path id="kity_path_335" fill="white" stroke="gray" d="M303.500004298985,979.4999725595117A6,6,0,1,1,291.500004298985,979.4999725595117A6,6,0,1,1,303.500004298985,979.4999725595117"></path><path id="kity_path_336" fill="none" stroke="gray" d="M293.000004298985,979.4999725595117L302.000004298985,979.4999725595117"></path></g><path id="node_outline36" fill="rgb(238, 243, 246)" stroke="rgb(115, 161, 191)" d="M307.50000470131636,966.4999725595117h78a3,3,0,0,1,3,3v20a3,3,0,0,1,-3,3h-78a3,3,0,0,1,-3,-3v-20a3,3,0,0,1,3,-3z" stroke-width="1"></path><g id="node_text36" fill="black"><text id="kity_text_181" text-rendering="inherit" font-size="14" dy=".8em" y="970.3999725282192" x="324.50000470131636">应用层</text></g></g><g id="minder_node10"><g id="node_expander27" style="cursor: pointer;"><path id="kity_path_311" fill="white" stroke="gray" d="M430.5000061914325,383.4999636784196A6,6,0,1,1,418.5000061914325,383.4999636784196A6,6,0,1,1,430.5000061914325,383.4999636784196"></path><path id="kity_path_312" fill="none" stroke="gray" d="M420.0000061914325,383.4999636784196L429.0000061914325,383.4999636784196"></path></g><path id="node_outline28" fill="none" stroke="none" d="M435.50000642985106,372.4999636784196h40a5,5,0,0,1,5,5v12a5,5,0,0,1,-5,5h-40a5,5,0,0,1,-5,-5v-12a5,5,0,0,1,5,-5z"></path><g id="node_text28" fill="black"><text id="kity_text_165" text-rendering="inherit" font-size="12" dy=".8em" y="375.6999636515975" x="440.50000642985106">HTTP</text></g></g><g id="minder_node11"><g id="node_expander12" style="cursor: pointer;"><path id="kity_path_266" fill="white" stroke="gray" d="M543.5000078752637,83.49995920807123A6,6,0,1,1,531.5000078752637,83.49995920807123A6,6,0,1,1,543.5000078752637,83.49995920807123"></path><path id="kity_path_267" fill="none" stroke="gray" d="M533.0000078752637,83.49995920807123L542.0000078752637,83.49995920807123"></path></g><path id="node_outline13" fill="none" stroke="none" d="M548.5000081136823,72.49995920807123h65a5,5,0,0,1,5,5v12a5,5,0,0,1,-5,5h-65a5,5,0,0,1,-5,-5v-12a5,5,0,0,1,5,-5z"></path><g id="node_text13" fill="black"><text id="kity_text_129" text-rendering="inherit" font-size="12" dy=".8em" y="75.69995918124914" x="553.5000081136823">HTTP报文</text></g></g><g id="minder_node12"><g id="node_expander11" style="cursor: pointer;"><path id="kity_path_263" fill="white" stroke="gray" d="M658.5000095888972,83.49995920807123A6,6,0,1,1,646.5000095888972,83.49995920807123A6,6,0,1,1,658.5000095888972,83.49995920807123"></path><path id="kity_path_264" fill="none" stroke="gray" d="M648.0000095888972,83.49995920807123L657.0000095888972,83.49995920807123"></path></g><path id="node_outline12" fill="none" stroke="none" d="M663.5000098273158,54.49995920807123h1115a5,5,0,0,1,5,5v48a5,5,0,0,1,-5,5h-1115a5,5,0,0,1,-5,-5v-48a5,5,0,0,1,5,-5z"></path><g id="node_text12" fill="black"><text id="kity_text_125" text-rendering="inherit" font-size="12" dy=".8em" y="57.69995918124914" x="668.5000098273158">HTTP报文：它是HTTP应用程序之间发送的数据块。这些数据块以一些文本形式的元信息开头，这些信息描述了报文的内容及含义，后面跟着可选的数据部分。这些报文都是在客户端、服务器和代理之间流动。</text><text id="kity_text_126" text-rendering="inherit" font-size="12" dy=".8em" y="75.69995918124914" x="668.5000098273158">流动方向：一次HTTP请求，HTTP报文会从“客户端”流到“代理”再流到“服务器”，在服务器工作完成之后，报文又会从“服务器”流到“代理”再流到“客户端”</text><text id="kity_text_127" text-rendering="inherit" font-size="12" dy=".8em" y="93.69995918124914" x="668.5000098273158">所有的HTTP报文都可以分为两类，请求报文和响应报文。请求和响应报文的基本报文结构大致是相同的，只有起始行的语法有所不同。</text></g></g><g id="minder_node13"><g id="node_expander8" style="cursor: pointer;" display="none"><path id="kity_path_254" fill="white" stroke="gray" d="M1823.50002694875,31.49995843321085A6,6,0,1,1,1811.50002694875,31.49995843321085A6,6,0,1,1,1823.50002694875,31.49995843321085"></path><path id="kity_path_255" fill="none" stroke="gray"></path></g><path id="node_outline9" fill="none" stroke="none" d="M1828.5000271871686,20.49995843321085h689a5,5,0,0,1,5,5v12a5,5,0,0,1,-5,5h-689a5,5,0,0,1,-5,-5v-12a5,5,0,0,1,5,-5z"></path><g id="node_text9" fill="black"><text id="kity_text_119" text-rendering="inherit" font-size="12" dy=".8em" y="23.69995840638876" x="1833.5000271871686">起始行：所有的HTTP报文都以一个起始行作为开始。请求报文的起始行说明了要做些什么。响应报文的起始行说明发生了什么。</text></g></g><g id="minder_node14"><g id="node_expander9" style="cursor: pointer;" display="none"><path id="kity_path_257" fill="white" stroke="gray" d="M1823.50002694875,83.49995920807123A6,6,0,1,1,1811.50002694875,83.49995920807123A6,6,0,1,1,1823.50002694875,83.49995920807123"></path><path id="kity_path_258" fill="none" stroke="gray"></path></g><path id="node_outline10" fill="none" stroke="none" d="M1828.5000271871686,72.49995920807123h934a5,5,0,0,1,5,5v12a5,5,0,0,1,-5,5h-934a5,5,0,0,1,-5,-5v-12a5,5,0,0,1,5,-5z"></path><g id="node_text10" fill="black"><text id="kity_text_121" text-rendering="inherit" font-size="12" dy=".8em" y="75.69995918124914" x="1833.5000271871686">头部：HTTP首部字段向请求和响应报文中添加了一些附加信息。本质上来说，它们只是一些名/值对的列表。头部和协议配合工作，共同决定了客户端和服务器能做什么事情。</text></g></g><g id="minder_node15"><g id="node_expander10" style="cursor: pointer;" display="none"><path id="kity_path_260" fill="white" stroke="gray" d="M1823.50002694875,135.4999599829316A6,6,0,1,1,1811.50002694875,135.4999599829316A6,6,0,1,1,1823.50002694875,135.4999599829316"></path><path id="kity_path_261" fill="none" stroke="gray"></path></g><path id="node_outline11" fill="none" stroke="none" d="M1828.5000271871686,124.49995998293161h921a5,5,0,0,1,5,5v12a5,5,0,0,1,-5,5h-921a5,5,0,0,1,-5,-5v-12a5,5,0,0,1,5,-5z"></path><g id="node_text11" fill="black"><text id="kity_text_123" text-rendering="inherit" font-size="12" dy=".8em" y="127.69995995610952" x="1833.5000271871686">实体的主体部分：该部分其实就是HTTP要传输的内容，是可选的。HTTP报文可以承载很多类型的数字数据，比如，图片、视频、HTML文档电子邮件、软件应用程序等等。</text></g></g><g id="minder_node16"><g id="node_expander19" style="cursor: pointer;"><path id="kity_path_287" fill="white" stroke="gray" d="M548.5000079497695,618.4999671801925A6,6,0,1,1,536.5000079497695,618.4999671801925A6,6,0,1,1,548.5000079497695,618.4999671801925"></path><path id="kity_path_288" fill="none" stroke="gray" d="M538.0000079497695,618.4999671801925L547.0000079497695,618.4999671801925"></path></g><path id="node_outline20" fill="none" stroke="none" d="M553.5000081881881,607.4999671801925h59a5,5,0,0,1,5,5v12a5,5,0,0,1,-5,5h-59a5,5,0,0,1,-5,-5v-12a5,5,0,0,1,5,-5z"></path><g id="node_text20" fill="black"><text id="kity_text_146" text-rendering="inherit" font-size="12" dy=".8em" y="610.6999671533704" x="558.5000081881881">响应报文</text></g></g><g id="minder_node17"><g id="node_expander18" style="cursor: pointer;"><path id="kity_path_284" fill="white" stroke="gray" d="M657.5000095739961,646.499967597425A6,6,0,1,1,645.5000095739961,646.499967597425A6,6,0,1,1,657.5000095739961,646.499967597425"></path><path id="kity_path_285" fill="none" stroke="gray" d="M647.0000095739961,646.499967597425L656.0000095739961,646.499967597425"></path></g><path id="node_outline19" fill="none" stroke="none" d="M662.5000098124146,608.499967597425h284a5,5,0,0,1,5,5v66a5,5,0,0,1,-5,5h-284a5,5,0,0,1,-5,-5v-66a5,5,0,0,1,5,-5z"></path><g id="node_text19" fill="black"><text id="kity_text_141" text-rendering="inherit" font-size="12" dy=".8em" y="611.6999675706029" x="667.5000098124146">格式：</text><text id="kity_text_142" text-rendering="inherit" font-size="12" dy=".8em" y="629.6999675706029" x="667.5000098124146">起始行：&#xa0;&#xa0;&lt;version&gt;&#xa0;&lt;status&gt;&#xa0;&lt;reason-phrase&gt;</text><text id="kity_text_143" text-rendering="inherit" font-size="12" dy=".8em" y="647.6999675706029" x="667.5000098124146">头部：&#xa0;&#xa0;&#xa0;&#xa0;&lt;headers&gt;</text><text id="kity_text_144" text-rendering="inherit" font-size="12" dy=".8em" y="665.6999675706029" x="667.5000098124146">主体：&#xa0;&#xa0;&#xa0;&#xa0;&lt;entity-body&gt;</text></g></g><g id="minder_node18"><g id="node_expander13" style="cursor: pointer;" display="none"><path id="kity_path_269" fill="white" stroke="gray" d="M991.5000145509839,542.4999660477042A6,6,0,1,1,979.5000145509839,542.4999660477042A6,6,0,1,1,991.5000145509839,542.4999660477042"></path><path id="kity_path_270" fill="none" stroke="gray"></path></g><path id="node_outline14" fill="none" stroke="none" d="M996.5000147894025,531.4999660477042h477a5,5,0,0,1,5,5v12a5,5,0,0,1,-5,5h-477a5,5,0,0,1,-5,-5v-12a5,5,0,0,1,5,-5z"></path><g id="node_text14" fill="black"><text id="kity_text_131" text-rendering="inherit" font-size="12" dy=".8em" y="534.6999660208821" x="1001.5000147894025">版本(version)：报文所使用的HTTP版本。其格式：HTTP/&lt;主要版本号&gt;.&lt;次要版本号&gt;</text></g></g><g id="minder_node19"><g id="node_expander14" style="cursor: pointer;" display="none"><path id="kity_path_272" fill="white" stroke="gray" d="M991.5000145509839,594.4999668225646A6,6,0,1,1,979.5000145509839,594.4999668225646A6,6,0,1,1,991.5000145509839,594.4999668225646"></path><path id="kity_path_273" fill="none" stroke="gray"></path></g><path id="node_outline15" fill="none" stroke="none" d="M996.5000147894025,583.4999668225646h874a5,5,0,0,1,5,5v12a5,5,0,0,1,-5,5h-874a5,5,0,0,1,-5,-5v-12a5,5,0,0,1,5,-5z"></path><g id="node_text15" fill="black"><text id="kity_text_133" text-rendering="inherit" font-size="12" dy=".8em" y="586.6999667957425" x="1001.5000147894025">状态码(status-code)：状态码是三位数字，描述了请求过程中所发生的情况。每个状态码的第一位数字都用于描述状态的一般类别(比如，“成功”、“出错”等等)</text></g></g><g id="minder_node20"><g id="node_expander15" style="cursor: pointer;" display="none"><path id="kity_path_275" fill="white" stroke="gray" d="M991.5000145509839,646.499967597425A6,6,0,1,1,979.5000145509839,646.499967597425A6,6,0,1,1,991.5000145509839,646.499967597425"></path><path id="kity_path_276" fill="none" stroke="gray"></path></g><path id="node_outline16" fill="none" stroke="none" d="M996.5000147894025,635.499967597425h1252a5,5,0,0,1,5,5v12a5,5,0,0,1,-5,5h-1252a5,5,0,0,1,-5,-5v-12a5,5,0,0,1,5,-5z"></path><g id="node_text16" fill="black"><text id="kity_text_135" text-rendering="inherit" font-size="12" dy=".8em" y="638.6999675706029" x="1001.5000147894025">原因短语(reason-phrase)：数字状态码的可读版本，包含行终止序列之前的所有文本。原因短语只对人类有意义，因此，尽管响应行HTTP/1.0&#xa0;200&#xa0;NOT&#xa0;OK和HTTP/1.0&#xa0;200&#xa0;OK中原因短语的含义不同，但同样都会被当作成功指示处理</text></g></g><g id="minder_node21"><g id="node_expander16" style="cursor: pointer;" display="none"><path id="kity_path_278" fill="white" stroke="gray" d="M991.5000145509839,698.4999683722854A6,6,0,1,1,979.5000145509839,698.4999683722854A6,6,0,1,1,991.5000145509839,698.4999683722854"></path><path id="kity_path_279" fill="none" stroke="gray"></path></g><path id="node_outline17" fill="none" stroke="none" d="M996.5000147894025,687.4999683722854h1214a5,5,0,0,1,5,5v12a5,5,0,0,1,-5,5h-1214a5,5,0,0,1,-5,-5v-12a5,5,0,0,1,5,-5z"></path><g id="node_text17" fill="black"><text id="kity_text_137" text-rendering="inherit" font-size="12" dy=".8em" y="690.6999683454633" x="1001.5000147894025">头部(header)：可以有零个或多个头部，每个首部都包含一个名字，后面跟着一个冒号(:)，然后是一个可选的空格，接着是一个值，最后是一个CRLF首部是由一个空行(CRLF)结束的，表示了头部列表的结束和实体主体部分的开始</text></g></g><g id="minder_node22"><g id="node_expander17" style="cursor: pointer;" display="none"><path id="kity_path_281" fill="white" stroke="gray" d="M991.5000145509839,750.4999691471457A6,6,0,1,1,979.5000145509839,750.4999691471457A6,6,0,1,1,991.5000145509839,750.4999691471457"></path><path id="kity_path_282" fill="none" stroke="gray"></path></g><path id="node_outline18" fill="none" stroke="none" d="M996.5000147894025,739.4999691471457h870a5,5,0,0,1,5,5v12a5,5,0,0,1,-5,5h-870a5,5,0,0,1,-5,-5v-12a5,5,0,0,1,5,-5z"></path><g id="node_text18" fill="black"><text id="kity_text_139" text-rendering="inherit" font-size="12" dy=".8em" y="742.6999691203237" x="1001.5000147894025">实体的主体部分(entity-body)：实体的主体部分包含一个由任意数据组成的数据块，并不是所有的报文都包含实体的主体部分，有时，报文只是以一个CRLF结束。</text></g></g><g id="minder_node23"><g id="node_expander26" style="cursor: pointer;"><path id="kity_path_308" fill="white" stroke="gray" d="M558.5000080987811,414.4999641403556A6,6,0,1,1,546.5000080987811,414.4999641403556A6,6,0,1,1,558.5000080987811,414.4999641403556"></path><path id="kity_path_309" fill="none" stroke="gray" d="M548.0000080987811,414.4999641403556L557.0000080987811,414.4999641403556"></path></g><path id="node_outline27" fill="none" stroke="none" d="M563.5000083371997,403.4999641403556h59a5,5,0,0,1,5,5v12a5,5,0,0,1,-5,5h-59a5,5,0,0,1,-5,-5v-12a5,5,0,0,1,5,-5z"></path><g id="node_text27" fill="black"><text id="kity_text_163" text-rendering="inherit" font-size="12" dy=".8em" y="406.6999641135335" x="568.5000083371997">请求报文</text></g></g><g id="minder_node24"><g id="node_expander25" style="cursor: pointer;"><path id="kity_path_305" fill="white" stroke="gray" d="M661.5000096336007,387.49996373802423A6,6,0,1,1,649.5000096336007,387.49996373802423A6,6,0,1,1,661.5000096336007,387.49996373802423"></path><path id="kity_path_306" fill="none" stroke="gray" d="M651.0000096336007,387.49996373802423L660.0000096336007,387.49996373802423"></path></g><path id="node_outline26" fill="none" stroke="none" d="M666.5000098720193,349.49996373802423h281a5,5,0,0,1,5,5v66a5,5,0,0,1,-5,5h-281a5,5,0,0,1,-5,-5v-66a5,5,0,0,1,5,-5z"></path><g id="node_text26" fill="black"><text id="kity_text_158" text-rendering="inherit" font-size="12" dy=".8em" y="352.69996371120214" x="671.5000098720193">格式：</text><text id="kity_text_159" text-rendering="inherit" font-size="12" dy=".8em" y="370.69996371120214" x="671.5000098720193">起始行：&#xa0;&lt;method&gt;&#xa0;&lt;request-URL&gt;&#xa0;&lt;version&gt;</text><text id="kity_text_160" text-rendering="inherit" font-size="12" dy=".8em" y="388.69996371120214" x="671.5000098720193">头部：&#xa0;&#xa0;&#xa0;&lt;headers&gt;</text><text id="kity_text_161" text-rendering="inherit" font-size="12" dy=".8em" y="406.69996371120214" x="671.5000098720193">主体：&#xa0;&#xa0;&#xa0;&lt;entity-body&gt;</text></g></g><g id="minder_node25"><g id="node_expander20" style="cursor: pointer;" display="none"><path id="kity_path_290" fill="white" stroke="gray" d="M993.5000145807862,283.49996218830347A6,6,0,1,1,981.5000145807862,283.49996218830347A6,6,0,1,1,993.5000145807862,283.49996218830347"></path><path id="kity_path_291" fill="none" stroke="gray"></path></g><path id="node_outline21" fill="none" stroke="none" d="M998.5000148192048,272.49996218830347h547a5,5,0,0,1,5,5v12a5,5,0,0,1,-5,5h-547a5,5,0,0,1,-5,-5v-12a5,5,0,0,1,5,-5z"></path><g id="node_text21" fill="black"><text id="kity_text_148" text-rendering="inherit" font-size="12" dy=".8em" y="275.6999621614814" x="1003.5000148192048">方式(method)：客户端希望服务器对资源执行的动作，是一个单独的词，比如，GET、POST或HEAD</text></g></g><g id="minder_node26"><g id="node_expander21" style="cursor: pointer;" display="none"><path id="kity_path_293" fill="white" stroke="gray" d="M992.5000145658851,335.49996296316385A6,6,0,1,1,980.5000145658851,335.49996296316385A6,6,0,1,1,992.5000145658851,335.49996296316385"></path><path id="kity_path_294" fill="none" stroke="gray"></path></g><path id="node_outline22" fill="none" stroke="none" d="M997.5000148043036,324.49996296316385h727a5,5,0,0,1,5,5v12a5,5,0,0,1,-5,5h-727a5,5,0,0,1,-5,-5v-12a5,5,0,0,1,5,-5z"></path><g id="node_text22" fill="black"><text id="kity_text_150" text-rendering="inherit" font-size="12" dy=".8em" y="327.69996293634176" x="1002.5000148043036">请求URL(request-URL)：要直接与服务器进行对话，只要请求URL是资源的绝对路径就可以了，服务器可以假定自己是URL的主机/端口</text></g></g><g id="minder_node27"><g id="node_expander22" style="cursor: pointer;" display="none"><path id="kity_path_296" fill="white" stroke="gray" d="M992.5000145658851,387.49996373802423A6,6,0,1,1,980.5000145658851,387.49996373802423A6,6,0,1,1,992.5000145658851,387.49996373802423"></path><path id="kity_path_297" fill="none" stroke="gray"></path></g><path id="node_outline23" fill="none" stroke="none" d="M997.5000148043036,376.49996373802423h477a5,5,0,0,1,5,5v12a5,5,0,0,1,-5,5h-477a5,5,0,0,1,-5,-5v-12a5,5,0,0,1,5,-5z"></path><g id="node_text23" fill="black"><text id="kity_text_152" text-rendering="inherit" font-size="12" dy=".8em" y="379.69996371120214" x="1002.5000148043036">版本(version)：报文所使用的HTTP版本。其格式：HTTP/&lt;主要版本号&gt;.&lt;次要版本号&gt;</text></g></g><g id="minder_node28"><g id="node_expander23" style="cursor: pointer;" display="none"><path id="kity_path_299" fill="white" stroke="gray" d="M992.5000145658851,439.4999645128846A6,6,0,1,1,980.5000145658851,439.4999645128846A6,6,0,1,1,992.5000145658851,439.4999645128846"></path><path id="kity_path_300" fill="none" stroke="gray"></path></g><path id="node_outline24" fill="none" stroke="none" d="M997.5000148043036,428.4999645128846h1214a5,5,0,0,1,5,5v12a5,5,0,0,1,-5,5h-1214a5,5,0,0,1,-5,-5v-12a5,5,0,0,1,5,-5z"></path><g id="node_text24" fill="black"><text id="kity_text_154" text-rendering="inherit" font-size="12" dy=".8em" y="431.6999644860625" x="1002.5000148043036">头部(header)：可以有零个或多个头部，每个首部都包含一个名字，后面跟着一个冒号(:)，然后是一个可选的空格，接着是一个值，最后是一个CRLF首部是由一个空行(CRLF)结束的，表示了头部列表的结束和实体主体部分的开始</text></g></g><g id="minder_node29"><g id="node_expander24" style="cursor: pointer;" display="none"><path id="kity_path_302" fill="white" stroke="gray" d="M992.5000145658851,491.499965287745A6,6,0,1,1,980.5000145658851,491.499965287745A6,6,0,1,1,992.5000145658851,491.499965287745"></path><path id="kity_path_303" fill="none" stroke="gray"></path></g><path id="node_outline25" fill="none" stroke="none" d="M997.5000148043036,480.499965287745h870a5,5,0,0,1,5,5v12a5,5,0,0,1,-5,5h-870a5,5,0,0,1,-5,-5v-12a5,5,0,0,1,5,-5z"></path><g id="node_text25" fill="black"><text id="kity_text_156" text-rendering="inherit" font-size="12" dy=".8em" y="483.6999652609229" x="1002.5000148043036">实体的主体部分(entity-body)：实体的主体部分包含一个由任意数据组成的数据块，并不是所有的报文都包含实体的主体部分，有时，报文只是以一个CRLF结束。</text></g></g><g id="minder_node30"><g id="node_expander29" style="cursor: pointer;"><path id="kity_path_317" fill="white" stroke="gray" d="M445.5000064149499,853.4999706819654A6,6,0,1,1,433.5000064149499,853.4999706819654A6,6,0,1,1,445.5000064149499,853.4999706819654"></path><path id="kity_path_318" fill="none" stroke="gray" d="M435.0000064149499,853.4999706819654L444.0000064149499,853.4999706819654"></path></g><path id="node_outline30" fill="none" stroke="none" d="M450.5000066533685,842.4999706819654h36a5,5,0,0,1,5,5v12a5,5,0,0,1,-5,5h-36a5,5,0,0,1,-5,-5v-12a5,5,0,0,1,5,-5z"></path><g id="node_text30" fill="black"><text id="kity_text_169" text-rendering="inherit" font-size="12" dy=".8em" y="845.6999706551433" x="455.5000066533685">DNS</text></g></g><g id="minder_node31"><g id="node_expander28" style="cursor: pointer;" display="none"><path id="kity_path_314" fill="white" stroke="gray" d="M657.5000095739961,794.9999698102474A6,6,0,1,1,645.5000095739961,794.9999698102474A6,6,0,1,1,657.5000095739961,794.9999698102474"></path><path id="kity_path_315" fill="none" stroke="gray"></path></g><path id="node_outline29" fill="none" stroke="none" d="M662.5000109151006,726.4999706670642h210a5,5,0,0,1,5,5v127a5,5,0,0,1,-5,5h-210a5,5,0,0,1,-5,-5v-127a5,5,0,0,1,5,-5z" stroke-width="3"></path><g id="node_text29" fill="black"><text id="kity_text_167" text-rendering="inherit" font-size="12" dy=".8em" y="844.6999706402421" x="741.5000109151006">DNS报文</text></g><image id="kity_image_190" xlink:href="http://kityminder-img.gz.bcebos.com/7bf5ea7ed5e5f69a4e8b440b0dede5706674703c" x="667.5000109151006" y="731.4999706670642" width="200" height="110"></image></g><g id="minder_node32"><g id="node_expander34" style="cursor: pointer;"><path id="kity_path_332" fill="white" stroke="gray" d="M428.50000616163015,1474.4999799355865A6,6,0,1,1,416.50000616163015,1474.4999799355865A6,6,0,1,1,428.50000616163015,1474.4999799355865"></path><path id="kity_path_333" fill="none" stroke="gray" d="M418.00000616163015,1474.4999799355865L427.00000616163015,1474.4999799355865"></path></g><path id="node_outline35" fill="none" stroke="none" d="M433.50000640004873,1463.4999799355865h43a5,5,0,0,1,5,5v12a5,5,0,0,1,-5,5h-43a5,5,0,0,1,-5,-5v-12a5,5,0,0,1,5,-5z"></path><g id="node_text35" fill="black"><text id="kity_text_179" text-rendering="inherit" font-size="12" dy=".8em" y="1466.6999799087644" x="438.50000640004873">SMTP</text></g></g><g id="minder_node33"><g id="node_expander30" style="cursor: pointer;" display="none"><path id="kity_path_320" fill="white" stroke="gray" d="M659.5000096037984,983.9999726265669A6,6,0,1,1,647.5000096037984,983.9999726265669A6,6,0,1,1,659.5000096037984,983.9999726265669"></path><path id="kity_path_321" fill="none" stroke="gray"></path></g><path id="node_outline31" fill="none" stroke="none" d="M664.5000109598041,875.4999740794301h210a5,5,0,0,1,5,5v207a5,5,0,0,1,-5,5h-210a5,5,0,0,1,-5,-5v-207a5,5,0,0,1,5,-5z"></path><g id="node_text31" fill="black"><text id="kity_text_171" text-rendering="inherit" font-size="12" dy=".8em" y="1073.699974052608" x="744.5000109598041">邮件报文</text></g><image id="kity_image_191" xlink:href="http://kityminder-img.gz.bcebos.com/15fc6b53f7b5a2ca5b50fe56463c5c31a6f59511" x="669.5000109598041" y="880.4999740794301" width="200" height="190"></image></g><g id="minder_node34"><g id="node_expander31" style="cursor: pointer;" display="none"><path id="kity_path_323" fill="white" stroke="gray" d="M661.5000096336007,1218.4999761208892A6,6,0,1,1,649.5000096336007,1218.4999761208892A6,6,0,1,1,661.5000096336007,1218.4999761208892"></path><path id="kity_path_324" fill="none" stroke="gray"></path></g><path id="node_outline32" fill="none" stroke="none" d="M666.5000109896064,1114.4999775066972h210a5,5,0,0,1,5,5v198a5,5,0,0,1,-5,5h-210a5,5,0,0,1,-5,-5v-198a5,5,0,0,1,5,-5z"></path><g id="node_text32" fill="black"><text id="kity_text_173" text-rendering="inherit" font-size="12" dy=".8em" y="1303.699977479875" x="746.5000109896064">连接建立</text></g><image id="kity_image_192" xlink:href="http://kityminder-img.gz.bcebos.com/cf5a84a4286c5c602500ec948c2e3f755a5be563" x="671.5000109896064" y="1119.4999775066972" width="200" height="181"></image></g><g id="minder_node35"><g id="node_expander32" style="cursor: pointer;" display="none"><path id="kity_path_326" fill="white" stroke="gray" d="M711.5000103786588,1457.9999796897173A6,6,0,1,1,699.5000103786588,1457.9999796897173A6,6,0,1,1,711.5000103786588,1457.9999796897173"></path><path id="kity_path_327" fill="none" stroke="gray"></path></g><path id="node_outline33" fill="none" stroke="none" d="M716.5000110790133,1344.4999812170863h122a5,5,0,0,1,5,5v217a5,5,0,0,1,-5,5h-122a5,5,0,0,1,-5,-5v-217a5,5,0,0,1,5,-5z"></path><g id="node_text33" fill="black"><text id="kity_text_175" text-rendering="inherit" font-size="12" dy=".8em" y="1552.6999811902642" x="752.5000110790133">报文传送</text></g><image id="kity_image_193" xlink:href="http://kityminder-img.gz.bcebos.com/d64ed78ce61b8b2bdbdf2ae909f6704a97ba85eb" x="721.5000110790133" y="1349.4999812170863" width="112" height="200"></image></g><g id="minder_node36"><g id="node_expander33" style="cursor: pointer;" display="none"><path id="kity_path_329" fill="white" stroke="gray" d="M669.50000975281,1665.4999827817082A6,6,0,1,1,657.50000975281,1665.4999827817082A6,6,0,1,1,669.50000975281,1665.4999827817082"></path><path id="kity_path_330" fill="none" stroke="gray"></path></g><path id="node_outline34" fill="none" stroke="none" d="M674.5000111088157,1592.4999837055802h210a5,5,0,0,1,5,5v136a5,5,0,0,1,-5,5h-210a5,5,0,0,1,-5,-5v-136a5,5,0,0,1,5,-5z"></path><g id="node_text34" fill="black"><text id="kity_text_177" text-rendering="inherit" font-size="12" dy=".8em" y="1719.6999836787581" x="754.5000111088157">连接终止</text></g><image id="kity_image_194" xlink:href="http://kityminder-img.gz.bcebos.com/dd0aefff0c7eecda24f3a29f690c5aa7f0fddf37" x="679.5000111088157" y="1597.4999837055802" width="200" height="119"></image></g><g id="minder_node37" opacity="1"><g id="node_expander36" style="cursor: pointer;"><path id="kity_path_338" fill="white" stroke="gray" d="M351.50000501424074,2576.499996356666A6,6,0,1,1,339.50000501424074,2576.499996356666A6,6,0,1,1,351.50000501424074,2576.499996356666"></path><path id="kity_path_339" fill="none" stroke="gray" d="M341.00000501424074,2576.499996356666L350.00000501424074,2576.499996356666"></path></g><path id="node_outline37" fill="rgb(238, 243, 246)" stroke="rgb(115, 161, 191)" d="M258.50000397115946,2563.499996356666h77a3,3,0,0,1,3,3v20a3,3,0,0,1,-3,3h-77a3,3,0,0,1,-3,-3v-20a3,3,0,0,1,3,-3z" stroke-width="1"></path><g id="node_text37" fill="black"><text id="kity_text_183" text-rendering="inherit" font-size="14" dy=".8em" y="2567.3999963253736" x="275.50000397115946">网络层</text></g></g><g id="minder_node38"><g id="node_expander37" style="cursor: pointer;"><path id="kity_path_341" fill="white" stroke="gray" d="M341.50000486522913,3126.5000045523047A6,6,0,1,1,329.50000486522913,3126.5000045523047A6,6,0,1,1,341.50000486522913,3126.5000045523047"></path><path id="kity_path_342" fill="none" stroke="gray" d="M331.00000486522913,3126.5000045523047L340.00000486522913,3126.5000045523047"></path></g><path id="node_outline38" fill="rgb(238, 243, 246)" stroke="rgb(115, 161, 191)" d="M219.50000339001417,3113.5000045523047h106a3,3,0,0,1,3,3v20a3,3,0,0,1,-3,3h-106a3,3,0,0,1,-3,-3v-20a3,3,0,0,1,3,-3z" stroke-width="1"></path><g id="node_text38" fill="black"><text id="kity_text_185" text-rendering="inherit" font-size="14" dy=".8em" y="3117.4000045210123" x="236.50000339001417">数据链路层</text></g></g><g id="minder_node40"><g id="node_expander39" style="cursor: pointer;" display="none"><path id="kity_path_357" fill="white" stroke="gray" d="M449.50000647455454,2576.9999963641167A6,6,0,1,1,437.50000647455454,2576.9999963641167A6,6,0,1,1,449.50000647455454,2576.9999963641167"></path><path id="kity_path_358" fill="none" stroke="gray"></path></g><path id="node_outline40" fill="none" stroke="none" d="M454.50000800937414,2494.4999974295497h210a5,5,0,0,1,5,5v155a5,5,0,0,1,-5,5h-210a5,5,0,0,1,-5,-5v-155a5,5,0,0,1,5,-5z" stroke-width="3"></path><g id="node_text40" fill="black"><text id="kity_text_354" text-rendering="inherit" font-size="12" dy=".8em" y="2640.6999974027276" x="546.5000080093741">报文</text></g><image id="kity_image_363" xlink:href="http://kityminder-img.gz.bcebos.com/8d45d5560ff86931984999fd11a8d616b01d5eef" x="459.50000800937414" y="2499.4999974295497" width="200" height="138" xlink:title="IP报文"></image></g><g id="minder_node39"><g id="node_expander38" style="cursor: pointer;"><path id="kity_path_349" fill="white" stroke="gray" d="M378.5000054165721,2576.499996356666A6,6,0,1,1,366.5000054165721,2576.499996356666A6,6,0,1,1,378.5000054165721,2576.499996356666"></path><path id="kity_path_350" fill="none" stroke="gray" d="M368.0000054165721,2576.499996356666L377.0000054165721,2576.499996356666"></path></g><path id="node_outline39" fill="none" stroke="none" d="M383.5000056549907,2565.499996356666h21a5,5,0,0,1,5,5v12a5,5,0,0,1,-5,5h-21a5,5,0,0,1,-5,-5v-12a5,5,0,0,1,5,-5z" stroke-width="3"></path><g id="node_text39" fill="black"><text id="kity_text_346" text-rendering="inherit" font-size="12" dy=".8em" y="2568.699996329844" x="388.5000056549907">IP</text></g></g><g id="minder_node41" opacity="1"><g id="node_expander40" style="cursor: pointer;"><path id="kity_path_372" fill="white" stroke="gray" d="M470.5000067874789,3018.5000029429793A6,6,0,1,1,458.5000067874789,3018.5000029429793A6,6,0,1,1,470.5000067874789,3018.5000029429793"></path><path id="kity_path_373" fill="none" stroke="gray" d="M460.0000067874789,3018.5000029429793L469.0000067874789,3018.5000029429793"></path></g><path id="node_outline41" fill="none" stroke="none" d="M419.5000061914325,3007.5000029429793h34a5,5,0,0,1,5,5v12a5,5,0,0,1,-5,5h-34a5,5,0,0,1,-5,-5v-12a5,5,0,0,1,5,-5z" stroke-width="3"></path><g id="node_text41" fill="black"><text id="kity_text_369" text-rendering="inherit" font-size="12" dy=".8em" y="3010.7000029161572" x="424.5000061914325">ARP</text></g></g><g id="minder_node42" opacity="1"><g id="node_expander41" style="cursor: pointer;" display="none"><path id="kity_path_380" fill="white" stroke="gray" d="M837.5000122562051,2994.000002577901A6,6,0,1,1,825.5000122562051,2994.000002577901A6,6,0,1,1,837.5000122562051,2994.000002577901"></path><path id="kity_path_381" fill="none" stroke="gray"></path></g><path id="node_outline42" fill="none" stroke="none" d="M610.5000103339553,2941.500003196299h210a5,5,0,0,1,5,5v95a5,5,0,0,1,-5,5h-210a5,5,0,0,1,-5,-5v-95a5,5,0,0,1,5,-5z" stroke-width="3"></path><g id="node_text42" fill="black"><text id="kity_text_377" text-rendering="inherit" font-size="12" dy=".8em" y="3027.700003169477" x="702.5000103339553">报文</text></g><image id="kity_image_382" xlink:href="http://kityminder-img.gz.bcebos.com/ef1611200906ae95e67158dcf13a9d2fd4d34df0" x="615.5000103339553" y="2946.500003196299" width="200" height="78"></image></g><g id="minder_node44" opacity="1"><g id="node_expander43" style="cursor: pointer;" display="none"><path id="kity_path_398" fill="white" stroke="gray" d="M484.5000069960952,3125.5000045374036A6,6,0,1,1,472.5000069960952,3125.5000045374036A6,6,0,1,1,484.5000069960952,3125.5000045374036"></path><path id="kity_path_399" fill="none" stroke="gray" d="M474.0000069960952,3125.5000045374036L483.0000069960952,3125.5000045374036"></path></g><path id="node_outline44" fill="none" stroke="none" d="M400.5000059083104,3114.5000045374036h67a5,5,0,0,1,5,5v12a5,5,0,0,1,-5,5h-67a5,5,0,0,1,-5,-5v-12a5,5,0,0,1,5,-5z" stroke-width="3"></path><g id="node_text44" fill="black"><text id="kity_text_395" text-rendering="inherit" font-size="12" dy=".8em" y="3117.7000045105815" x="405.5000059083104">CSMA/CD</text></g></g><g id="minder_node46" opacity="1"><g id="node_expander45" style="cursor: pointer;"><path id="kity_path_414" fill="white" stroke="gray" d="M487.50000704079866,3254.5000064596534A6,6,0,1,1,475.50000704079866,3254.5000064596534A6,6,0,1,1,487.50000704079866,3254.5000064596534"></path><path id="kity_path_415" fill="none" stroke="gray" d="M477.00000704079866,3254.5000064596534L486.00000704079866,3254.5000064596534"></path></g><path id="node_outline46" fill="none" stroke="none" d="M438.50000647455454,3243.5000064596534h32a5,5,0,0,1,5,5v12a5,5,0,0,1,-5,5h-32a5,5,0,0,1,-5,-5v-12a5,5,0,0,1,5,-5z" stroke-width="3"></path><g id="node_text46" fill="black"><text id="kity_text_411" text-rendering="inherit" font-size="12" dy=".8em" y="3246.7000064328313" x="443.50000647455454">PPP</text></g></g><g id="minder_node47" opacity="1"><g id="node_expander46" style="cursor: pointer;" display="none"><path id="kity_path_422" fill="white" stroke="gray" d="M821.5000120177865,3225.000006020069A6,6,0,1,1,809.5000120177865,3225.000006020069A6,6,0,1,1,821.5000120177865,3225.000006020069"></path><path id="kity_path_423" fill="none" stroke="gray"></path></g><path id="node_outline47" fill="none" stroke="none" d="M594.5000101849437,3167.500006712973h210a5,5,0,0,1,5,5v105a5,5,0,0,1,-5,5h-210a5,5,0,0,1,-5,-5v-105a5,5,0,0,1,5,-5z" stroke-width="3"></path><g id="node_text47" fill="black"><text id="kity_text_419" text-rendering="inherit" font-size="12" dy=".8em" y="3263.700006686151" x="692.5000101849437">帧</text></g><image id="kity_image_424" xlink:href="http://kityminder-img.gz.bcebos.com/4313479f34a025de29e1a0baac0168e4c5e7b791" x="599.5000101849437" y="3172.500006712973" width="200" height="88"></image></g><g id="kity_g_12" display="none"><path id="kity_path_13" fill="none" stroke="rgb(66, 94, 112)" d="M438.50000051409006,3208.4999924078584h32a5,5,0,0,1,5,5v12a5,5,0,0,1,-5,5h-32a5,5,0,0,1,-5,-5v-12a5,5,0,0,1,5,-5z" stroke-width="5"></path></g><g id="minder_node4"><g id="node_expander1" style="cursor: pointer;" display="none"><path id="kity_path_233" fill="white" stroke="gray" d="M628.5000091418624,1869.9999858289957A6,6,0,1,1,616.5000091418624,1869.9999858289957A6,6,0,1,1,628.5000091418624,1869.9999858289957"></path><path id="kity_path_234" fill="none" stroke="gray"></path></g><path id="node_outline2" fill="none" stroke="none" d="M633.500010676682,1787.4999868944287h210a5,5,0,0,1,5,5v155a5,5,0,0,1,-5,5h-210a5,5,0,0,1,-5,-5v-155a5,5,0,0,1,5,-5z"></path><g id="node_text2" fill="black"><text id="kity_text_105" text-rendering="inherit" font-size="12" dy=".8em" y="1933.6999868676066" x="725.500010676682">报文</text></g><image id="kity_image_186" xlink:href="http://kityminder-img.gz.bcebos.com/60aa815ba945544015866a0ef93baf498f412677" x="638.500010676682" y="1792.4999868944287" width="200" height="138"></image></g><g id="minder_node5"><g id="node_expander2" style="cursor: pointer;" display="none"><path id="kity_path_236" fill="white" stroke="gray" d="M628.5000091418624,2061.499988682568A6,6,0,1,1,616.5000091418624,2061.499988682568A6,6,0,1,1,628.5000091418624,2061.499988682568"></path><path id="kity_path_237" fill="none" stroke="gray"></path></g><path id="node_outline3" fill="none" stroke="none" d="M633.5000104978681,1982.499989695847h210a5,5,0,0,1,5,5v148a5,5,0,0,1,-5,5h-210a5,5,0,0,1,-5,-5v-148a5,5,0,0,1,5,-5z"></path><g id="node_text3" fill="black"><text id="kity_text_107" text-rendering="inherit" font-size="12" dy=".8em" y="2121.699989669025" x="713.5000104978681">三次握手</text></g><image id="kity_image_187" xlink:href="http://kityminder-img.gz.bcebos.com/c3c0e108bccfea2e15251887ff4e6209f872c741" x="638.5000104978681" y="1987.499989695847" width="200" height="131"></image></g><g id="minder_node6"><g id="node_expander3" style="cursor: pointer;" display="none"><path id="kity_path_239" fill="white" stroke="gray" d="M628.5000091418624,2259.9999916404486A6,6,0,1,1,616.5000091418624,2259.9999916404486A6,6,0,1,1,628.5000091418624,2259.9999916404486"></path><path id="kity_path_240" fill="none" stroke="gray"></path></g><path id="node_outline4" fill="none" stroke="none" d="M633.5000104978681,2170.4999928101897h210a5,5,0,0,1,5,5v169a5,5,0,0,1,-5,5h-210a5,5,0,0,1,-5,-5v-169a5,5,0,0,1,5,-5z"></path><g id="node_text4" fill="black"><text id="kity_text_109" text-rendering="inherit" font-size="12" dy=".8em" y="2330.6999927833676" x="713.5000104978681">连接释放</text></g><image id="kity_image_188" xlink:href="http://kityminder-img.gz.bcebos.com/42dd341ad1d4d66ce9a0cc2c20d18f1bf8190157" x="638.5000104978681" y="2175.4999928101897" width="200" height="152"></image></g><g id="minder_node3"><g id="node_expander4" style="cursor: pointer;"><path id="kity_path_242" fill="white" stroke="gray" d="M546.5000079199672,2068.499988786876A6,6,0,1,1,534.5000079199672,2068.499988786876A6,6,0,1,1,546.5000079199672,2068.499988786876"></path><path id="kity_path_243" fill="none" stroke="gray" d="M536.0000079199672,2068.499988786876L545.0000079199672,2068.499988786876"></path></g><path id="node_outline5" fill="none" stroke="none" d="M551.5000081583858,2057.499988786876h32a5,5,0,0,1,5,5v12a5,5,0,0,1,-5,5h-32a5,5,0,0,1,-5,-5v-12a5,5,0,0,1,5,-5z"></path><g id="node_text5" fill="black"><text id="kity_text_111" text-rendering="inherit" font-size="12" dy=".8em" y="2060.699988760054" x="556.5000081583858">TCP</text></g></g><g id="minder_node8"><g id="node_expander5" style="cursor: pointer;" display="none"><path id="kity_path_245" fill="white" stroke="gray" d="M631.5000091865659,2428.4999941512942A6,6,0,1,1,619.5000091865659,2428.4999941512942A6,6,0,1,1,631.5000091865659,2428.4999941512942"></path><path id="kity_path_246" fill="none" stroke="gray"></path></g><path id="node_outline6" fill="none" stroke="none" d="M636.5000107213855,2379.4999947175384h210a5,5,0,0,1,5,5v88a5,5,0,0,1,-5,5h-210a5,5,0,0,1,-5,-5v-88a5,5,0,0,1,5,-5z" stroke-width="3"></path><g id="node_text6" fill="black"><text id="kity_text_113" text-rendering="inherit" font-size="12" dy=".8em" y="2458.6999946907163" x="728.5000107213855">报文</text></g><image id="kity_image_189" xlink:href="http://kityminder-img.gz.bcebos.com/10b7c6bd4bd3067eec81496456a91ae3dec1ea02" x="641.5000107213855" y="2384.4999947175384" width="200" height="71"></image></g><g id="minder_node7"><g id="node_expander6" style="cursor: pointer;"><path id="kity_path_248" fill="white" stroke="gray" d="M546.5000079199672,2428.4999941512942A6,6,0,1,1,534.5000079199672,2428.4999941512942A6,6,0,1,1,546.5000079199672,2428.4999941512942"></path><path id="kity_path_249" fill="none" stroke="gray" d="M536.0000079199672,2428.4999941512942L545.0000079199672,2428.4999941512942"></path></g><path id="node_outline7" fill="none" stroke="none" d="M551.5000081583858,2417.4999941512942h35a5,5,0,0,1,5,5v12a5,5,0,0,1,-5,5h-35a5,5,0,0,1,-5,-5v-12a5,5,0,0,1,5,-5z"></path><g id="node_text7" fill="black"><text id="kity_text_115" text-rendering="inherit" font-size="12" dy=".8em" y="2420.699994124472" x="556.5000081583858">UDP</text></g></g></g></g></svg>